<mxfile host="app.diagrams.net" modified="2024-08-01T16:01:16.542Z" agent="Mozilla/5.0 (Windows NT 10.0; Win64; x64) AppleWebKit/537.36 (KHTML, like Gecko) Chrome/127.0.0.0 Safari/537.36" version="22.1.17" etag="RKwn5UIh3Di7cjqM1U1t" type="github">
  <diagram name="第 1 页" id="81FZFj3305lzqGJHBwNj">
    <mxGraphModel>
      <root>
        <mxCell id="0" />
        <mxCell id="1" parent="0" />
      </root>
    </mxGraphModel>
  </diagram>
</mxfile>
